<svg width="40" height="40" viewBox="0 0 40 40" fill="none" xmlns="http://www.w3.org/2000/svg">
<g clip-path="url(#clip0)">
<path fill-rule="evenodd" clip-rule="evenodd" d="M11.6826 31.9199C10.9108 31.9199 10.2851 32.5456 10.2851 33.3174C10.2851 34.0891 10.9108 34.7148 11.6826 34.7148C12.4544 34.7148 13.08 34.0891 13.08 33.3174C13.08 32.5456 12.4544 31.9199 11.6826 31.9199ZM8.29535 33.3174C8.29535 31.4466 9.81187 29.9301 11.6826 29.9301C13.5533 29.9301 15.0698 31.4466 15.0698 33.3174C15.0698 35.1881 13.5533 36.7046 11.6826 36.7046C9.81187 36.7046 8.29535 35.1881 8.29535 33.3174Z" fill="white"/>
<path fill-rule="evenodd" clip-rule="evenodd" d="M11.6826 5.28514C10.9108 5.28514 10.2851 5.9108 10.2851 6.68259C10.2851 7.45438 10.9108 8.08004 11.6826 8.08004C12.4544 8.08004 13.08 7.45438 13.08 6.68259C13.08 5.9108 12.4544 5.28514 11.6826 5.28514ZM8.29535 6.68259C8.29535 4.81187 9.81187 3.29535 11.6826 3.29535C13.5533 3.29535 15.0698 4.81187 15.0698 6.68259C15.0698 8.55331 13.5533 10.0698 11.6826 10.0698C9.81187 10.0698 8.29535 8.55331 8.29535 6.68259Z" fill="white"/>
<path fill-rule="evenodd" clip-rule="evenodd" d="M28.2695 5.28514C27.4977 5.28514 26.8721 5.9108 26.8721 6.68259C26.8721 7.45438 27.4977 8.08004 28.2695 8.08004C29.0413 8.08004 29.667 7.45438 29.667 6.68259C29.667 5.9108 29.0413 5.28514 28.2695 5.28514ZM24.8823 6.68259C24.8823 4.81187 26.3988 3.29535 28.2695 3.29535C30.1402 3.29535 31.6567 4.81187 31.6567 6.68259C31.6567 8.55331 30.1402 10.0698 28.2695 10.0698C26.3988 10.0698 24.8823 8.55331 24.8823 6.68259Z" fill="white"/>
<path fill-rule="evenodd" clip-rule="evenodd" d="M11.6826 8.07812C12.2331 8.07812 12.6794 8.52441 12.6794 9.07494V30.925C12.6794 31.4755 12.2331 31.9218 11.6826 31.9218C11.1321 31.9218 10.6858 31.4755 10.6858 30.925V9.07494C10.6858 8.52441 11.1321 8.07812 11.6826 8.07812Z" fill="white"/>
<path fill-rule="evenodd" clip-rule="evenodd" d="M28.2695 8.07812C28.82 8.07812 29.2663 8.52441 29.2663 9.07494V11.9457C29.2663 16.9746 25.1391 21.0765 19.9761 21.0765C15.8887 21.0765 12.6794 24.3111 12.6794 28.2137V31.0845C12.6794 31.635 12.2331 32.0813 11.6826 32.0813C11.1321 32.0813 10.6858 31.635 10.6858 31.0845V28.2137C10.6858 23.1849 14.813 19.0829 19.9761 19.0829C24.0634 19.0829 27.2727 15.8484 27.2727 11.9457V9.07494C27.2727 8.52441 27.719 8.07812 28.2695 8.07812Z" fill="white"/>
</g>
<defs>
<clipPath id="clip0">
<rect width="23.2855" height="33.3333" fill="white" transform="translate(8.33331 3.33331)"/>
</clipPath>
</defs>
</svg>
