<svg width="40" height="40" viewBox="0 0 40 40" fill="none" 
	xmlns="http://www.w3.org/2000/svg">
	<path fill-rule="evenodd" clip-rule="evenodd" d="M18.9022 12.0899C15.0574 12.0899 11.9865 15.0054 11.84 18.7765C11.8182 19.3374 11.3572 19.7809 10.7958 19.7809H9.95143C7.47872 19.7809 5.42324 21.8308 5.42324 24.2533C5.42324 26.6758 7.47872 28.7258 9.95143 28.7258H28.5286C31.8457 28.7258 34.5767 26.007 34.5767 22.7486C34.5767 19.4812 31.8472 16.7967 28.5735 16.9376C28.5586 16.9382 28.5436 16.9386 28.5286 16.9386C28.0027 16.9386 27.4528 17.0692 26.753 17.2424C26.2443 17.3683 25.721 17.0979 25.5294 16.6101C24.4954 13.9779 21.9954 12.0899 18.9022 12.0899ZM9.84528 17.6918C10.5034 13.2688 14.3064 10 18.9022 10C22.5669 10 25.5953 12.0641 27.1004 15.0147C27.543 14.923 28.0199 14.8509 28.5056 14.8487C32.9906 14.6681 36.6666 18.3322 36.6666 22.7486C36.6666 27.181 32.9801 30.8157 28.5286 30.8157H9.95143C6.34434 30.8157 3.33331 27.8498 3.33331 24.2533C3.33331 20.6922 6.28546 17.7493 9.84528 17.6918Z" fill="white"/>
</svg>
