<svg width="40" height="40" viewBox="0 0 40 40" fill="none" xmlns="http://www.w3.org/2000/svg">
<path fill-rule="evenodd" clip-rule="evenodd" d="M21.6404 3.33337H24.9212V6.66671V7.64671C26.0515 8.11004 27.1112 8.73171 28.0725 9.49171L28.9042 9.00337L31.7454 7.33671L33.3858 10.2234L35.0262 13.11L36.6666 15.9967L33.8254 17.6634L32.9937 18.1517C33.0807 18.7634 33.1233 19.38 33.1233 20C33.1233 20.62 33.0807 21.2367 32.9937 21.8484L33.8254 22.3367L36.6666 24.0034L35.0262 26.89L33.3858 29.7767L31.7454 32.6634L28.9042 30.9967L28.0725 30.5084C27.1112 31.2684 26.0515 31.89 24.9212 32.3534V33.3334V36.6667H21.6404H18.3596H15.0787V33.3334V32.3534C13.9485 31.89 12.8888 31.2684 11.9275 30.5084L11.0958 30.9967L8.25457 32.6634L6.61415 29.7767L4.97373 26.89L3.33331 24.0034L6.17452 22.3367L7.00621 21.8484C6.91927 21.2367 6.87662 20.62 6.87662 20C6.87662 19.38 6.91927 18.7634 7.00621 18.1517L6.17452 17.6634L3.33331 15.9967L4.97373 13.11L6.61415 10.2234L8.25457 7.33671L11.0958 9.00337L11.9275 9.49171C12.8888 8.73171 13.9485 8.11004 15.0787 7.64671V6.66671V3.33337H18.3596H21.6404ZM22.4606 6.66671V5.83337H21.6404H18.3596H17.5393V6.66671V7.64671V9.33504L16.0006 9.96504C15.0804 10.3434 14.2208 10.8467 13.4383 11.4634L12.1325 12.4984L10.6972 11.6567L9.86546 11.1684L9.15516 10.7517L8.74506 11.4734L7.10464 14.36L6.69453 15.0817L7.40483 15.4984L8.23653 15.9867L9.67682 16.8317L9.44224 18.505C9.3717 18.9984 9.33725 19.5017 9.33725 20C9.33725 20.4984 9.3717 21.0017 9.44224 21.495L9.67682 23.1684L8.23653 24.0134L7.40483 24.5017L6.69453 24.9184L7.10464 25.64L8.74506 28.5267L9.15516 29.2484L9.86546 28.8317L10.6972 28.3434L12.1325 27.5017L13.4383 28.5367C14.2208 29.1534 15.0804 29.6567 16.0006 30.035L17.5393 30.665V32.3534V33.3334V34.1667H18.3596H21.6404H22.4606V33.3334V32.3534V30.665L23.9993 30.035C24.9196 29.6567 25.7792 29.1534 26.5617 28.5367L27.8674 27.5017L29.3028 28.3434L30.1345 28.8317L30.8448 29.2484L31.2549 28.5267L32.8953 25.64L33.3054 24.9184L32.5951 24.5017L31.7634 24.0134L30.3231 23.1684L30.5577 21.495C30.6283 21.0017 30.6627 20.4984 30.6627 20C30.6627 19.5017 30.6283 18.9984 30.5577 18.505L30.3231 16.8317L31.7634 15.9867L32.5951 15.4984L33.3054 15.0817L32.8953 14.36L31.2549 11.4734L30.8448 10.7517L30.1345 11.1684L29.3028 11.6567L27.8674 12.4984L26.5617 11.4634C25.7792 10.8467 24.9196 10.3434 23.9993 9.96504L22.4606 9.33504V7.64671V6.66671ZM13.4383 20C13.4383 16.3234 16.3812 13.3334 20 13.3334C23.6187 13.3334 26.5617 16.3234 26.5617 20C26.5617 23.6767 23.6187 26.6667 20 26.6667C16.3812 26.6667 13.4383 23.6767 13.4383 20ZM24.101 20C24.101 17.7034 22.2605 15.8334 20 15.8334C17.7395 15.8334 15.8989 17.7034 15.8989 20C15.8989 22.2967 17.7395 24.1667 20 24.1667C22.2605 24.1667 24.101 22.2967 24.101 20Z" fill="white"/>
</svg>
