<svg width="24" height="24" viewBox="0 0 24 24" fill="none" 
	xmlns="http://www.w3.org/2000/svg">
	<g clip-path="url(#clip0)">
		<path d="M20 18C19.9 18 19.8 18 19.7 18L17.3 12.5C17.7 12.2 18 11.6 18 11C18 9.9 17.1 9 16 9C15.8 9 15.6 9 15.5 9.1L13.4 5.5C13.8 5.1 14 4.6 14 4C14 2.9 13.1 2 12 2C10.9 2 10 2.9 10 4C10 4.6 10.2 5.1 10.6 5.4L8.5 9.1C8.4 9 8.2 9 8 9C6.9 9 6 9.9 6 11C6 11.6 6.3 12.2 6.8 12.6L4.3 18C4.2 18 4.1 18 4 18C2.9 18 2 18.9 2 20C2 21.1 2.9 22 4 22C5.1 22 6 21.1 6 20C6 19.4 5.7 18.8 5.2 18.4L7.7 13C7.8 13 7.9 13 8 13C8.1 13 8.2 13 8.3 13L10.7 18.5C10.3 18.8 10 19.4 10 20C10 21.1 10.9 22 12 22C13.1 22 14 21.1 14 20C14 18.9 13.1 18 12 18C11.9 18 11.8 18 11.7 18L9.3 12.5C9.7 12.2 10 11.6 10 11C10 10.4 9.8 9.9 9.4 9.6L11.5 6C11.6 6 11.8 6 12 6C12.2 6 12.4 6 12.5 5.9L14.6 9.5C14.2 9.9 14 10.4 14 11C14 12.1 14.9 13 16 13C16.1 13 16.2 13 16.3 13L18.7 18.5C18.3 18.8 18 19.4 18 20C18 21.1 18.9 22 20 22C21.1 22 22 21.1 22 20C22 18.9 21.1 18 20 18Z" fill="white"/>
	</g>
	<defs>
		<clipPath id="clip0">
			<rect width="20" height="20" fill="white" transform="translate(2 2)"/>
		</clipPath>
	</defs>
</svg>
