<?xml version="1.0" encoding="UTF-8" standalone="no"?>
<svg
   xmlns:dc="http://purl.org/dc/elements/1.1/"
   xmlns:cc="http://creativecommons.org/ns#"
   xmlns:rdf="http://www.w3.org/1999/02/22-rdf-syntax-ns#"
   xmlns:svg="http://www.w3.org/2000/svg"
   xmlns="http://www.w3.org/2000/svg"
   xmlns:sodipodi="http://sodipodi.sourceforge.net/DTD/sodipodi-0.dtd"
   xmlns:inkscape="http://www.inkscape.org/namespaces/inkscape"
   width="214.51273"
   height="207.62709"
   version="1.1"
   viewBox="0 0 214.51273 207.62709"
   id="svg30"
   sodipodi:docname="role-editor.svg"
   inkscape:version="0.92.4 (5da689c313, 2019-01-14)">
  <metadata
     id="metadata36">
    <rdf:RDF>
      <cc:Work
         rdf:about="">
        <dc:format>image/svg+xml</dc:format>
        <dc:type
           rdf:resource="http://purl.org/dc/dcmitype/StillImage" />
      </cc:Work>
    </rdf:RDF>
  </metadata>
  <defs
     id="defs34" />
  <sodipodi:namedview
     pagecolor="#ffffff"
     bordercolor="#666666"
     borderopacity="1"
     objecttolerance="10"
     gridtolerance="10"
     guidetolerance="10"
     inkscape:pageopacity="0"
     inkscape:pageshadow="2"
     inkscape:window-width="1920"
     inkscape:window-height="1137"
     id="namedview32"
     showgrid="false"
     inkscape:zoom="1.888"
     inkscape:cx="384.76771"
     inkscape:cy="103.36409"
     inkscape:window-x="-8"
     inkscape:window-y="-8"
     inkscape:window-maximized="1"
     inkscape:current-layer="g28" />
  <g
     transform="matrix(7.0274,0,0,7.0274,-85.642617,-7115.3562)"
     id="g28">
    <path
       transform="translate(0,1002.4)"
       d="m 15.508,11.186 c -1.2433,0 -2.2598,1.0145 -2.2598,2.2578 v 23.115 c 0,1.2433 1.0164,2.2578 2.2598,2.2578 h 16.117 c 1.2433,0 2.2578,-1.0145 2.2578,-2.2578 v -1.0234 l -0.46094,0.19141 -0.45117,0.1875 v 0.64453 c 0,0.7539 -0.59181,1.3457 -1.3457,1.3457 h -16.117 c -0.75389,0 -1.3477,-0.5918 -1.3477,-1.3457 v -23.115 c 0,-0.7539 0.59374,-1.3457 1.3477,-1.3457 h 16.117 c 0.75392,0 1.3457,0.5918 1.3457,1.3457 v 16.725 l 0.91211,-0.96875 v -15.756 c 0,-1.2433 -1.0145,-2.2578 -2.2578,-2.2578 H 15.508 Z m 18.375,19.475 -0.82031,0.87109 0.82031,0.77148 v -1.6426 z m -0.91211,2.7383 v 1.4355 l 0.06836,-0.02734 0.54883,-0.23047 0.29492,-0.12109 v -0.19727 l -0.91211,-0.85937 z"
       style="color:#000000;text-indent:0;text-decoration:none;text-decoration-line:none;text-decoration-style:solid;text-decoration-color:#000000;text-transform:none;white-space:normal;isolation:auto;mix-blend-mode:normal;solid-color:#000000;fill:#ffffff;color-rendering:auto;image-rendering:auto;shape-rendering:auto"
       id="path4"
       inkscape:connector-curvature="0" />
    <path
       d="m 16.922,1017.8 a 0.45599,0.45599 0 0 0 0.04687,0.9102 h 13.195 a 0.45599,0.45599 0 1 0 0,-0.9102 h -13.195 a 0.45599,0.45599 0 0 0 -0.04687,0 z"
       style="color:#000000;text-indent:0;text-decoration:none;text-decoration-line:none;text-decoration-style:solid;text-decoration-color:#000000;text-transform:none;white-space:normal;isolation:auto;mix-blend-mode:normal;solid-color:#000000;fill:#ffffff;fill-rule:evenodd;color-rendering:auto;image-rendering:auto;shape-rendering:auto"
       id="path6"
       inkscape:connector-curvature="0" />
    <path
       d="m 16.969,1020.8 a 0.45605,0.45605 0 1 0 0,0.9121 h 13.195 a 0.45605,0.45605 0 0 0 0,-0.9121 z"
       style="color:#000000;text-indent:0;text-decoration:none;text-decoration-line:none;text-decoration-style:solid;text-decoration-color:#000000;text-transform:none;white-space:normal;isolation:auto;mix-blend-mode:normal;solid-color:#000000;fill:#ffffff;fill-rule:evenodd;color-rendering:auto;image-rendering:auto;shape-rendering:auto"
       id="path8"
       inkscape:connector-curvature="0" />
    <path
       d="m 16.969,1023.9 a 0.45605,0.45605 0 1 0 0,0.9121 h 13.195 a 0.45605,0.45605 0 0 0 0,-0.9121 z"
       style="color:#000000;text-indent:0;text-decoration:none;text-decoration-line:none;text-decoration-style:solid;text-decoration-color:#000000;text-transform:none;white-space:normal;isolation:auto;mix-blend-mode:normal;solid-color:#000000;fill:#ffffff;fill-rule:evenodd;color-rendering:auto;image-rendering:auto;shape-rendering:auto"
       id="path10"
       inkscape:connector-curvature="0" />
    <path
       d="m 16.969,1026.9 a 0.45605,0.45605 0 1 0 0,0.9121 h 13.195 a 0.45605,0.45605 0 0 0 0,-0.9121 z"
       style="color:#000000;text-indent:0;text-decoration:none;text-decoration-line:none;text-decoration-style:solid;text-decoration-color:#000000;text-transform:none;white-space:normal;isolation:auto;mix-blend-mode:normal;solid-color:#000000;fill:#ffffff;fill-rule:evenodd;color-rendering:auto;image-rendering:auto;shape-rendering:auto"
       id="path12"
       inkscape:connector-curvature="0" />
    <path
       d="m 16.969,1029.9 a 0.45605,0.45605 0 1 0 0,0.9121 h 13.195 a 0.45605,0.45605 0 0 0 0,-0.9121 z"
       style="color:#000000;text-indent:0;text-decoration:none;text-decoration-line:none;text-decoration-style:solid;text-decoration-color:#000000;text-transform:none;white-space:normal;isolation:auto;mix-blend-mode:normal;solid-color:#000000;fill:#ffffff;fill-rule:evenodd;color-rendering:auto;image-rendering:auto;shape-rendering:auto"
       id="path14"
       inkscape:connector-curvature="0" />
    <path
       d="m 16.969,1033 a 0.45605,0.45605 0 1 0 0,0.9121 h 13.195 a 0.45605,0.45605 0 0 0 0,-0.9121 z"
       style="color:#000000;text-indent:0;text-decoration:none;text-decoration-line:none;text-decoration-style:solid;text-decoration-color:#000000;text-transform:none;white-space:normal;isolation:auto;mix-blend-mode:normal;solid-color:#000000;fill:#ffffff;fill-rule:evenodd;color-rendering:auto;image-rendering:auto;shape-rendering:auto"
       id="path16"
       inkscape:connector-curvature="0" />
    <path
       d="m 16.969,1036 a 0.45605,0.45605 0 1 0 0,0.9121 h 13.195 a 0.45605,0.45605 0 0 0 0,-0.9121 z"
       style="color:#000000;text-indent:0;text-decoration:none;text-decoration-line:none;text-decoration-style:solid;text-decoration-color:#000000;text-transform:none;white-space:normal;isolation:auto;mix-blend-mode:normal;solid-color:#000000;fill:#ffffff;fill-rule:evenodd;color-rendering:auto;image-rendering:auto;shape-rendering:auto"
       id="path18"
       inkscape:connector-curvature="0" />
    <g
       transform="matrix(0.098732,0.023273,-0.023273,0.098732,25.86,948.81)"
       id="g24"
       style="fill:#ffffff">
      <path
         transform="translate(0,552.36)"
         d="m 303.57,167.92 c -1.0038,0.0702 -1.953,0.6237 -2.4961,1.5644 l -2.0039,3.4688 33.439,19.307 2.0039,-3.4688 c 0.86903,-1.5052 0.35676,-3.4181 -1.1484,-4.2871 l -28.006,-16.168 c -0.56445,-0.32588 -1.1868,-0.45812 -1.7891,-0.41601 z m -6.5859,8.6465 -42.156,73.018 33.439,19.305 42.156,-73.016 z m -44.242,76.631 -1.9863,3.4394 c -0.86903,1.5052 -0.35677,3.4161 1.1484,4.2852 l 28.006,16.168 c 1.5052,0.86903 3.4161,0.35676 4.2852,-1.1484 l 1.9863,-3.4394 -33.439,-19.305 z"
         id="path20"
         inkscape:connector-curvature="0" />
      <path
         d="m 249,850.66 c -1.0612,-0.61275 -0.68138,-3.6463 -0.68138,-3.6463 l 0.59844,-5.8633 0.59864,-5.8636 0.59845,-5.863 0.59855,-5.8633 0.59844,-5.8633 0.59864,-5.8633 0.59845,-5.8633 4.18,2.4133 4.18,2.4133 4.18,2.4133 4.18,2.4133 4.18,2.4133 4.18,2.4133 4.18,2.4133 4.18,2.4133 -4.7784,3.45 -4.7786,3.45 -4.7784,3.45 -4.7785,3.45 -4.7784,3.45 -4.7786,3.45 -4.7784,3.45 c 0,0 -2.4374,1.8458 -3.4986,1.233 z"
         id="path22"
         inkscape:connector-curvature="0" />
    </g>
    <path
       transform="translate(0,1002.4)"
       d="m 39.068,24.623 c -0.10074,-0.016 -0.20574,0.01766 -0.28125,0.09766 l -0.2793,0.29492 2.8516,2.6836 0.2793,-0.29492 c 0.12083,-0.1284 0.11471,-0.32842 -0.01367,-0.44922 l -2.3887,-2.248 c -0.04815,-0.045 -0.10752,-0.07398 -0.16797,-0.08398 z m -0.85156,0.70117 -5.8613,6.2285 2.8535,2.6836 5.8613,-6.2285 z m -6.1504,6.5352 v 0.002 l -0.0332,0.03516 -0.24219,0.25781 c -0.1162,0.12348 -0.11248,0.31176 0.002,0.43359 l -0.15039,0.4375 -0.19531,0.56445 -0.19531,0.56641 -0.19531,0.56445 -0.19727,0.56445 -0.19531,0.56641 c 0,0 -0.10809,0.29 -0.01758,0.375 0.09051,0.0855 0.375,-0.04102 0.375,-0.04102 l 0.55274,-0.22852 0.55078,-0.23047 0.55273,-0.22852 0.55274,-0.22852 0.55078,-0.23047 0.42773,-0.17773 c 0.12858,0.10748 0.31716,0.10057 0.43359,-0.02344 l 0.24023,-0.25586 0.0039,-0.002 0.03125,-0.03516 -2.8516,-2.6855 z"
       id="path26"
       inkscape:connector-curvature="0"
       style="fill:#ffffff" />
    <rect
       style="fill:none;stroke-width:0.12589228"
       id="rect38"
       width="30.52519"
       height="29.545364"
       x="12.186956"
       y="1012.5162" />
  </g>
</svg>
