<svg width="40" height="40" viewBox="0 0 40 40" fill="none" xmlns="http://www.w3.org/2000/svg">
<path fill-rule="evenodd" clip-rule="evenodd" d="M12.0093 4.32847C12.0093 3.80785 12.4313 3.3858 12.9519 3.3858H26.2189C26.7396 3.3858 27.1616 3.80785 27.1616 4.32847V17.5955C27.1616 18.1161 26.7396 18.5381 26.2189 18.5381H20.5231V23.457H31.6915C32.2093 23.457 32.629 23.8767 32.629 24.3945V28.0953H35.0082C35.5288 28.0953 35.9509 28.5173 35.9509 29.0379V35.6714C35.9509 36.1921 35.5288 36.6141 35.0082 36.6141H28.3747C27.8541 36.6141 27.432 36.1921 27.432 35.6714V29.0379C27.432 28.5173 27.8541 28.0953 28.3747 28.0953H30.754V25.332H20.5229V28.0953H22.9021C23.4227 28.0953 23.8448 28.5173 23.8448 29.0379V35.6714C23.8448 36.1921 23.4227 36.6141 22.9021 36.6141H16.2686C15.748 36.6141 15.3259 36.1921 15.3259 35.6714V29.0379C15.3259 28.5173 15.748 28.0953 16.2686 28.0953H18.6479V25.3322H8.58276V28.0953H10.962C11.4826 28.0953 11.9046 28.5173 11.9046 29.0379V35.6714C11.9046 36.1921 11.4826 36.6141 10.962 36.6141H4.32849C3.80786 36.6141 3.38582 36.1921 3.38582 35.6714V29.0379C3.38582 28.5173 3.80786 28.0953 4.32849 28.0953H6.70776V24.3947C6.70776 23.8769 7.12749 23.4572 7.64526 23.4572H18.6481V18.5381H12.9519C12.4313 18.5381 12.0093 18.1161 12.0093 17.5955V4.32847ZM13.8946 5.27114V16.6528H25.2763V5.27114H13.8946ZM17.2113 29.9806V34.7288H21.9594V29.9806H17.2113ZM5.27115 34.7288V29.9806H10.0193V34.7288H5.27115ZM29.3174 29.9806V34.7288H34.0655V29.9806H29.3174Z" fill="white"/>
</svg>
