<?xml version="1.0" encoding="utf-8"?>
<!-- Generator: Adobe Illustrator 21.1.0, SVG Export Plug-In . SVG Version: 6.00 Build 0)  -->
<svg version="1.1" id="Layer_1" xmlns="http://www.w3.org/2000/svg" xmlns:xlink="http://www.w3.org/1999/xlink" x="0px" y="0px"
	 viewBox="0 0 254 134" enable-background="new 0 0 254 134" xml:space="preserve">
<g>
<!--The color was "#E30521" in the 3M brand authorized artwork pdf. The brand team says it should be #ff0000 instead."-->
	<path fill="#FF0000" d="M200.1,3.2l-18.3,74.7L163.3,3.2h-54v27.6C102.9,6.6,80,0.6,58.8,0.2C33-0.1,5.9,11.1,4.9,45.2h35.7
		c0-10.3,7.9-16.2,16.8-16.1c10.9-0.1,16,4.6,16.2,11.9c-0.4,6.3-4.1,10.7-16.1,10.7h-12v24.8h10.9c6.2,0,14.8,3.4,15.2,12.2
		c0.4,10.5-6.9,15.1-15.9,15.2C39.6,103.3,37,91,37,80.4H-0.1c0.2,7.1-1.6,53.7,56.5,53.4c27.8,0.3,47.3-11.4,53-27.6v24.7H146V50.4
		l19.8,80.6h32l19.8-80.5V131h36.5V3.2H200.1z M109.5,77.7c-4.5-9.4-10.9-13.5-14.6-14.8c7.6-3.4,11.5-7.9,14.6-17V77.7z"/>
</g>
</svg>
