<svg width="40" height="40" viewBox="0 0 40 40" fill="none" xmlns="http://www.w3.org/2000/svg">
<path fill-rule="evenodd" clip-rule="evenodd" d="M5.83333 32.5076L34.1683 32.4726C34.1683 31.1992 33.4467 30.0276 32.285 29.4126C31.1633 28.8159 29.605 28.4959 27.9517 28.1592C26.7133 27.9042 25.4383 27.6442 24.1767 27.2426C21.39 28.4259 18.475 28.3842 15.8183 27.2442C14.5583 27.6442 13.2867 27.9042 12.05 28.1592C10.3983 28.4959 8.83833 28.8159 7.71666 29.4109C6.55499 30.0276 5.83333 31.1992 5.83333 32.4726V32.5076ZM36.6683 35.0076H3.33333V32.4726C3.33333 30.2709 4.56333 28.2526 6.54499 27.2009C7.98333 26.4376 9.71499 26.0842 11.55 25.7092C12.8633 25.4409 14.22 25.1626 15.4783 24.7226L15.99 24.5442L16.4733 24.7976C18.7217 25.8742 21.2683 25.8776 23.53 24.7959L23.9933 24.5726L24.525 24.7226C25.7817 25.1626 27.1383 25.4409 28.4517 25.7092C30.2867 26.0842 32.0183 26.4376 33.4567 27.2026C35.4383 28.2526 36.6683 30.2709 36.6683 32.4726V35.0076ZM20.0017 23.9727C18.2567 23.9727 16.6183 23.1861 15.2633 21.6994C13.6117 19.8844 12.665 17.2561 12.665 14.4861C12.6667 9.25606 15.9567 4.99939 20.0017 4.99939C24.0467 4.99939 27.3367 9.25606 27.3367 14.4861C27.3367 17.2561 26.39 19.8861 24.74 21.6994C23.385 23.1861 21.7467 23.9727 20.0017 23.9727ZM20.0017 7.49939C17.335 7.49939 15.1667 10.6344 15.165 14.4861C15.165 16.6394 15.8733 18.6561 17.1133 20.0161C17.7183 20.6794 18.7117 21.4727 20.0017 21.4727C21.2917 21.4727 22.285 20.6794 22.89 20.0161C24.1283 18.6561 24.8367 16.6411 24.8367 14.4861C24.8367 10.6344 22.6683 7.49939 20.0017 7.49939Z" fill="white"/>
</svg>
