<svg width="40" height="40" viewBox="0 0 40 40" fill="none" xmlns="http://www.w3.org/2000/svg">
<g clip-path="url(#clip0)">
<path d="M10.4651 5.34888C11.8604 5.34888 13.1007 5.81399 14.186 6.89927C15.5814 8.29461 16.0465 10.1551 15.5814 11.8605C15.2713 12.6357 14.8062 13.4109 14.186 14.1861C13.4108 14.8062 12.6356 15.2714 11.8604 15.4264C11.3953 15.5814 10.9302 15.5814 10.4651 15.5814C9.06974 15.5814 7.82943 15.1163 6.74416 14.031C5.65889 12.9458 5.03873 11.2404 5.34881 9.68996L8.60463 12.9458L12.9457 8.60469L9.6899 5.34888C9.99998 5.34888 10.155 5.34888 10.4651 5.34888ZM10.4651 3.33337C10.155 3.33337 9.84494 3.33337 9.37982 3.33337C8.60463 3.48841 7.98447 3.95353 7.82943 4.57368C7.51936 5.19384 7.82943 5.96903 8.29455 6.58919L10.155 8.44965L8.60463 10.3101L6.74416 8.29461C6.27904 7.98454 5.81393 7.8295 5.34881 7.8295C5.19377 7.8295 4.8837 7.8295 4.72866 7.98454C3.95346 8.13958 3.48835 8.75973 3.33331 9.37989C3.02323 11.5504 3.79842 13.876 5.34881 15.4264C6.74416 16.8217 8.44959 17.4419 10.3101 17.4419C11.0852 17.5969 11.7054 17.4419 12.3256 17.2869C13.5659 16.9768 14.6511 16.3566 15.5814 15.4264C16.5116 14.4962 17.1318 13.4109 17.4418 12.1706C18.062 9.68996 17.4418 7.0543 15.5814 5.34888C14.186 4.10857 12.3256 3.33337 10.4651 3.33337Z" fill="white"/>
<path d="M29.5349 24.4186C30.9302 24.4186 32.1705 24.8837 33.2558 25.969C34.4961 27.2093 34.9612 28.7597 34.6511 30.3101L31.3953 27.0542L27.0542 31.3953L30.3101 34.6511C30 34.6511 29.8449 34.6511 29.5349 34.6511C28.1395 34.6511 26.8992 34.186 25.8139 33.1008C24.4186 31.7054 23.9535 29.8449 24.4186 28.1395C24.5736 27.3643 25.0387 26.4341 25.8139 25.8139C26.4341 25.1938 27.3643 24.7287 28.1395 24.4186C28.6046 24.4186 29.0697 24.4186 29.5349 24.4186ZM29.5349 22.4031C28.9147 22.4031 28.2946 22.5581 27.6744 22.7132C26.4341 23.0232 25.3488 23.6434 24.4186 24.5736C23.4884 25.5039 22.8682 26.5891 22.5581 27.8294C21.938 30.3101 22.5581 32.9457 24.4186 34.6511C25.8139 36.0465 27.5194 36.6666 29.5349 36.6666C29.8449 36.6666 30.155 36.6666 30.4651 36.6666C31.2403 36.5116 31.8604 36.0465 32.0155 35.4263C32.3256 34.8062 32.0155 34.031 31.5504 33.4108L29.6899 31.3953L31.3953 29.6899L33.2558 31.5504C33.5659 31.8604 34.186 32.1705 34.6511 32.1705C34.8062 32.1705 35.1163 32.1705 35.2713 32.0155C35.8915 31.7054 36.5116 31.2403 36.5116 30.4651C36.8217 28.2945 36.0465 25.969 34.4961 24.4186C33.2558 23.1783 31.3953 22.4031 29.5349 22.4031Z" fill="white"/>
<path fill-rule="evenodd" clip-rule="evenodd" d="M16.067 11.8342C16.4197 11.7274 16.8027 11.8234 17.0633 12.084L27.916 22.9367C28.1766 23.1973 28.2726 23.5803 28.1658 23.933C28.059 24.2858 27.7667 24.5511 27.4053 24.6234C26.8832 24.7278 26.3075 25.0527 25.8192 25.6631C25.7961 25.6919 25.7715 25.7194 25.7455 25.7455C25.2474 26.2435 24.8584 26.8798 24.5915 27.6804C24.482 28.009 24.2101 28.2574 23.873 28.337C23.5359 28.4166 23.1816 28.316 22.9367 28.071L12.084 17.2183C11.8464 16.9808 11.7441 16.6398 11.8117 16.3107C11.8792 15.9816 12.1076 15.7085 12.4195 15.5837C13.0609 15.3271 13.723 14.9392 14.4048 14.4049C14.9485 13.7106 15.2727 13.1142 15.3766 12.5947C15.4489 12.2333 15.7142 11.941 16.067 11.8342ZM16.7148 14.5624C16.4762 14.9757 16.1938 15.3692 15.8967 15.7406C15.8506 15.7982 15.7982 15.8506 15.7406 15.8967C15.3241 16.2299 14.9024 16.5259 14.4752 16.7827L23.329 25.6366C23.6001 25.1731 23.9209 24.7501 24.2933 24.3712C24.6418 23.9442 25.0366 23.5881 25.4615 23.3091L16.7148 14.5624Z" fill="white"/>
</g>
<defs>
<clipPath id="clip0">
<rect width="33.3333" height="33.3333" fill="white" transform="translate(3.33331 3.33337)"/>
</clipPath>
</defs>
</svg>
